<?xml version="1.0" encoding="UTF-8"?>
<svg xmlns="http://www.w3.org/2000/svg"
     width="152.711mm"
     height="84.4313mm"
     version="1.1"
     style="fill-rule:evenOdd;"
     viewBox="0 0 15381.9 8504.39"
>
<g fill="#312C55">
  <path
      d="M8598.17 5801.85l-2418.26 0 -200.3 207.52 0 -1022.6 210.12 230.37 1674.59 0 0 -684.41 -1021.34 0 -191.81 207.72 0 -202.59 0 -571.53 0 -204.11 191.81 207.46 1021.34 0 0 -682.52 -1674.59 0 -210.12 227.47 0 -1019.63 200.3 207.52 2091.73 0 163.52 0 163.01 0 -149.21 193.39 0 408.27 0 662.13 0 571.53 0 653.01 0 417.57 149.21 193.4zm219.49 -2905.91l148.83 -193.39 0.44 -368.26 -2792.41 0 -194.92 -207.59 -368.31 0 0 1842.87 671.56 0 0 563.18 -671.56 0 0 1844.95 368.31 0 187.39 -207.51 2799.5 0 0 -368.32 -148.83 -193.4 0 -2712.51z"
  />

  <polygon
      points="14905.33,3179.97 14905.33,3905.78 14993.76,4645.14 15275.42,4645.14 15381.9,3905.78 15381.9,3179.97 "/>
  <polygon points="14959.49,5324.43 15327.74,5324.43 15327.74,4953.54 14959.49,4953.54 "/>

  <path
      d="M2209.23 3742.64l-71.09 -193.4 -220.94 0 0 1775.19 365.65 0 0 -1202.64c0,-76.98 60.47,-199.36 204.93,-205.31l479.93 -0.5 -0.62 -365.72 -383.14 0c-247.34,-6.9 -342.17,147.69 -374.71,192.4z"
  />
  <path
      d="M7929.52 796.49c443.95,91.05 857.51,265.33 1223.9,505.61l562.25 -562.25 1011.18 1011.18 -559.56 559.56c130.88,197.36 242.47,408.61 332.15,631.06l-773.33 0c-475.67,-901.07 -1421.82,-1515.34 -2511.6,-1515.34 -1089.78,0 -2035.94,614.27 -2511.6,1515.34l-773.35 0c89.69,-222.44 201.28,-433.7 332.17,-631.06l-559.57 -559.57 1011.18 -1011.18 562.26 562.26c366.39,-240.27 779.94,-414.57 1223.89,-505.61l0 -796.49 1430.03 0 0 796.49zm2579.87 4766.26c-89.1,225.94 -200.77,440.51 -332.21,640.95l549.67 549.67 -1011.18 1011.18 -547.08 -547.08c-370.1,245.44 -788.99,423.21 -1239.07,515.51l0 771.42 -1430.03 0 0 -771.42c-450.07,-92.3 -868.95,-270.09 -1239.07,-515.52l-547.09 547.09 -1011.18 -1011.18 549.68 -549.68c-131.45,-200.42 -243.11,-415 -332.21,-640.94l770.07 0c471.24,914.77 1424.95,1540.41 2524.83,1540.41 1099.88,0 2053.58,-625.64 2524.83,-1540.41l770.06 0z"
  />
  <path
      d="M13571.59 3550.38l713.87 0c221.6,0 402.9,181.3 402.9,402.9l0 968.25c0,221.61 -181.31,402.9 -402.9,402.9l-713.87 0c-221.6,0 -402.9,-181.3 -402.9,-402.9l0 -968.25c0,-221.61 181.31,-402.9 402.9,-402.9zm173.4 370.88l367.06 0c113.94,0 207.16,93.21 207.16,207.16l0 617.96c0,113.93 -93.22,207.16 -207.16,207.16l-367.06 0c-113.94,0 -207.16,-93.23 -207.16,-207.16l0 -617.96c0,-113.95 93.22,-207.16 207.16,-207.16z"
  />
  <path
      d="M3587.26 3550.38l713.87 0c221.6,0 402.9,181.3 402.9,402.9l0 699.83c-383.51,0 -767.03,0 -1150.54,0l0 93.27c0,113.93 93.22,207.16 207.16,207.16 314.03,0 628.06,0 942.1,0l0.8 370.88 -1116.29 0c-221.58,0 -402.9,-181.3 -402.9,-402.9l0 -968.25c0,-221.61 181.31,-402.9 402.9,-402.9zm747.63 736.82l0 -158.77c0,-113.95 -93.22,-207.16 -207.16,-207.16l-367.06 0c-113.94,0 -207.16,93.21 -207.16,207.16l0 158.77 781.39 0z"
  />
  <path
      d="M10461.26 3179.97l-0.05 3.89 0 366.52 365.6 0 0 365.92 -365.6 0 0 830.09c0,113.92 93.22,207.16 207.16,207.16l366.15 0 0 370.88 -539.55 0c-221.59,0 -402.9,-181.3 -402.9,-402.9l0 -1005.23 -365.92 0 0 -365.92 365.99 0 137.18 -370.41 231.94 0z"
  />
  <path
      d="M622.38 4953.55l674.95 0c221.59,0 402.9,181.32 402.9,402.88l0 288.11c0,221.57 -181.32,402.88 -402.9,402.88l-894.43 0c-221.6,0 -402.9,-181.32 -402.9,-402.88l0 -288.11c0,-182.33 122.79,-337.39 289.78,-386.59 -69.32,-25.42 -119.12,-92.19 -119.12,-170.04l0 0c0,-99.58 81.46,-181.01 181.01,-181.01l32.28 0c-154.18,-56.65 -264.94,-205.22 -264.94,-378.4l0 -288.11c0,-221.57 181.31,-402.88 402.9,-402.88l422.44 0 201.55 -369.43 326.99 0 0 194.98 -200.65 185.61c176.68,42.62 308.97,202.47 308.97,391.72l0 288.11c0,221.57 -181.31,402.88 -402.9,402.88l-551.36 0c-53.93,31.43 -90.38,89.92 -90.38,156.53l0 0c0,64.7 34.41,121.73 85.81,153.76zm-3.76 -1038.24l463 0c73.33,0 133.34,60 133.34,133.34l0 95.36c0,73.35 -60.01,133.34 -133.34,133.34l-463 0c-73.33,0 -133.34,-59.99 -133.34,-133.34l0 -95.36c0,-73.34 60.01,-133.34 133.34,-133.34zm-119.37 1404.16l701.73 0c73.34,0 133.35,60.01 133.35,133.34l0 95.35c0,73.34 -60.01,133.34 -133.35,133.34l-701.73 0c-73.34,0 -133.34,-60 -133.34,-133.34l0 -95.35c0,-73.33 60,-133.34 133.34,-133.34z"
  />
  <path
      d="M11873.87 4953.55l674.95 0c221.59,0 402.9,181.32 402.9,402.88l0 288.11c0,221.57 -181.32,402.88 -402.9,402.88l-894.43 0c-221.6,0 -402.9,-181.32 -402.9,-402.88l0 -288.11c0,-182.33 122.79,-337.39 289.78,-386.59 -69.32,-25.42 -119.12,-92.19 -119.12,-170.04l0 0c0,-99.58 81.46,-181.01 181.01,-181.01l32.28 0c-154.18,-56.65 -264.94,-205.22 -264.94,-378.4l0 -288.11c0,-221.57 181.31,-402.88 402.9,-402.88l422.44 0 201.55 -369.43 326.99 0 0 194.98 -200.65 185.61c176.68,42.62 308.97,202.47 308.97,391.72l0 288.11c0,221.57 -181.31,402.88 -402.9,402.88l-551.36 0c-53.93,31.43 -90.38,89.92 -90.38,156.53l0 0c0,64.7 34.41,121.73 85.81,153.76zm-3.76 -1038.24l463 0c73.33,0 133.34,60 133.34,133.34l0 95.36c0,73.35 -60.01,133.34 -133.34,133.34l-463 0c-73.33,0 -133.34,-59.99 -133.34,-133.34l0 -95.36c0,-73.34 60.01,-133.34 133.34,-133.34zm-119.37 1404.16l701.73 0c73.34,0 133.35,60.01 133.35,133.34l0 95.35c0,73.34 -60.01,133.34 -133.35,133.34l-701.73 0c-73.34,0 -133.34,-60 -133.34,-133.34l0 -95.35c0,-73.33 60,-133.34 133.34,-133.34z"
  />
</g>
</svg>
